<svg xmlns="http://www.w3.org/2000/svg" height="800" width="600" version="1.1" xmlns:xlink="http://www.w3.org/1999/xlink">

<g transform="scale(3.25) translate(5.055 20.166)">DAY_0_icon</g>

<g transform="scale(1.2) translate(34.167 399.725)">DAY_1_icon</g>
<g transform="scale(1.2) translate(200 399.725)">DAY_2_icon</g>
<g transform="scale(1.2) translate(365.833 399.725)">DAY_3_icon</g>

<g font-family="DejaVu Sans">
<text style="text-anchor:middle;" font-size="35px" y="52.256058" x="76.039063">Today:</text>
<text style="text-anchor:middle;" font-size="35px" y="121.70689" x="446.26932">High:</text>
<text style="text-anchor:end;" font-size="100px" y="209.20592" x="526.72095">DAY_0_high</text>
<text style="text-anchor:middle;" font-size="64px" y="182.48717" x="548.30981">°C</text>
<text style="text-anchor:middle;" font-size="35px" y="275.13895" x="440.80057">Low:</text>
<text style="text-anchor:end;" font-size="100px" y="359.8533" x="526.23267">DAY_0_low</text>
<text style="text-anchor:middle;" font-size="64px" y="333.13455" x="548.30981">°C</text>

<text style="text-anchor:middle;" font-size="32px" y="465.16922" x="102.92969">Tomorrow:</text>
<text style="text-anchor:middle;" font-size="20px" y="635.68347" x="74.958336">High:</text>
<text style="text-anchor:end;" font-size="58px" y="686.3255" x="116.05887">DAY_1_high</text>
<text style="text-anchor:middle;" font-size="37px" y="670.86145" x="134.01662">°C</text>
<text style="text-anchor:middle;" font-size="20px" y="724.48578" x="71.906197">Low:</text>
<text style="text-anchor:end;" font-size="58px" y="773.51617" x="116.00232">DAY_1_low</text>
<text style="text-anchor:middle;" font-size="37px" y="758.05206" x="134.01663">°C</text>

<text style="text-anchor:middle;" font-size="32px" y="466.15359" x="300.3125">DAY_2_day:</text>
<text style="text-anchor:middle;" font-size="20px" y="635.68347" x="273.95834">High:</text>
<text style="text-anchor:end;" font-size="58px" y="686.3255" x="314.15454">DAY_2_high</text>
<text style="text-anchor:middle;" font-size="37px" y="670.86145" x="333.01663">°C</text>
<text style="text-anchor:middle;" font-size="20px" y="724.48578" x="270.90619">Low:</text>
<text style="text-anchor:end;" font-size="58px" y="773.51617" x="314.08383">DAY_2_low</text>
<text style="text-anchor:middle;" font-size="37px" y="758.05206" x="333.0166">°C</text>

<text style="text-anchor:middle;" font-size="32px" y="466.15359" x="499.82813">DAY_3_day:</text>
<text style="text-anchor:middle;" font-size="20px" y="635.68347" x="472.95834">High:</text>
<text style="text-anchor:end;" font-size="58px" y="686.3255" x="513.30994">DAY_3_high</text>
<text style="text-anchor:middle;" font-size="37px" y="670.86145" x="532.0166">°C</text>
<text style="text-anchor:middle;" font-size="20px" y="724.48578" x="469.90619">Low:</text>
<text style="text-anchor:end;" font-size="58px" y="773.51617" x="513.73383">DAY_3_low</text>
<text style="text-anchor:middle;" font-size="37px" y="758.05206" x="532.0166">°C</text>
</g>

<path d="m199,447.35,0,321.5,3,0,0-321.5-3,0z"/>
<path d="m398,447.35,0,321.5,3,0,0-321.5-3,0z"/>

</svg>
